<?xml version="1.0" encoding="utf-8"?>
<!-- Generator: Adobe Illustrator 22.0.1, SVG Export Plug-In . SVG Version: 6.00 Build 0)  -->
<svg version="1.1" xmlns="http://www.w3.org/2000/svg" xmlns:xlink="http://www.w3.org/1999/xlink" x="0px" y="0px"
	 viewBox="0 0 500 500" style="enable-background:new 0 0 500 500;" xml:space="preserve">
<style type="text/css">
	.st0{fill:#FFDD00;}
	.st1{fill:#FEBC12;}
</style>
<g id="Layer_2">
	<circle class="st0" cx="250" cy="250" r="243.4"/>
</g>
<g id="Layer_3">
	<path class="st1" d="M250,37.6C132.7,37.6,37.6,132.7,37.6,250S132.7,462.4,250,462.4S462.4,367.3,462.4,250S367.3,37.6,250,37.6z
		 M250,449.8c-110.3,0-199.8-89.4-199.8-199.8S139.7,50.2,250,50.2S449.8,139.7,449.8,250S360.3,449.8,250,449.8z"/>
</g>
<g id="Layer_5">
</g>
<g id="Layer_4">
	<rect x="238.9" y="110.8" class="st1" width="22" height="278.1"/>
	<path class="st1" d="M327.7,149.7c0,0-38-16.1-77.8-15.2c-39.7,0.8-83.7,22.8-82.8,59.2c0.8,36.3,22.8,50.7,65.1,69.3
		c42.3,18.6,47.3,14.4,50.7,33.8c2.2,12.6-15.2,27-56.6,18.6s-59.2-16.9-59.2-16.9v44c0,0,48.4,15.2,82.9,13.5
		c34.6-1.7,69.2-11,81.1-43.1c5.8-15.8,13.5-41.1-18.6-62.8s-104.8-30.2-95.5-60.6c9.3-30.4,96.4-0.8,96.4-0.8L327.7,149.7z"/>
</g>
</svg>
