<?xml version="1.0" encoding="utf-8"?>
<!-- Generator: Adobe Illustrator 22.0.1, SVG Export Plug-In . SVG Version: 6.00 Build 0)  -->
<svg version="1.1" xmlns="http://www.w3.org/2000/svg" xmlns:xlink="http://www.w3.org/1999/xlink" x="0px" y="0px"
	 viewBox="0 0 500 500" style="enable-background:new 0 0 500 500;" xml:space="preserve">
<style type="text/css">
	.st0{fill:#222222;}
</style>
<g id="Layer_1">
	<path class="st0" d="M403.6,175.4c-5.1-1.7-10.2-3.3-15.3-4.8c0.9-3.5,1.6-7,2.4-10.5c11.6-56.4,4-101.8-21.9-116.8
		c-24.9-14.3-65.5,0.6-106.6,36.4c-4.1,3.5-8,7.2-11.8,10.9c-2.6-2.5-5.2-4.9-7.9-7.3C199.3,45,156.2,28.9,130.3,43.9
		c-24.8,14.4-32.2,57.1-21.8,110.5c1,5.3,2.2,10.5,3.5,15.8c-6.1,1.7-12,3.6-17.6,5.6C43.8,193.3,7.6,221,7.6,249.6
		c0,29.5,38.6,59.2,91.2,77.2c4.3,1.4,8.5,2.8,12.9,4.1c-1.4,5.7-2.7,11.3-3.8,17c-9.9,52.6-2.2,94.2,22.6,108.5
		c25.6,14.8,68.6-0.4,110.4-37c3.3-2.9,6.6-6,9.9-9.2c4.2,4.1,8.5,8,12.9,11.7c40.5,34.8,80.6,49,105.3,34.7
		c25.6-14.8,33.9-59.6,23.1-114.1c-0.9-4.2-1.8-8.4-2.8-12.8c3-0.9,6-1.8,8.9-2.7c54.6-18.1,94.2-47.3,94.2-77.4
		C492.4,220.9,455.1,193.1,403.6,175.4L403.6,175.4z M275.5,95c35.2-30.7,68.1-42.7,83-34.1c16,9.2,22.2,46.3,12.1,95.1
		c-0.7,3.2-1.3,6.3-2.2,9.5c-21-4.7-42.3-8.1-63.7-10c-12.3-17.6-25.8-34.5-40.3-50.3C268.1,101.6,271.7,98.3,275.5,95z M152.4,274
		c4.4,8.3,8.8,16.6,13.5,24.7c4.8,8.2,9.8,16.5,15,24.5c-14.8-1.6-29.5-4-43.9-7.1C141.1,302.5,146.3,288.4,152.4,274L152.4,274z
		 M152.4,226.1c-6-14.1-11-27.9-15.2-41.3c13.6-3,28.1-5.5,43.2-7.4c-5,7.9-9.9,15.9-14.6,24.1C161.2,209.5,156.6,217.8,152.4,226.1
		L152.4,226.1z M163.2,250.1c6.2-13.1,13.1-25.9,20.3-38.4c7.2-12.6,15-24.8,23.1-36.8c14.2-1,28.7-1.6,43.5-1.6
		c14.8,0,29.4,0.6,43.5,1.6c8,11.9,15.7,24.1,23,36.6c7.3,12.5,14.1,25.3,20.5,38.3c-6.3,13.1-13.2,25.9-20.5,38.6
		c-7.2,12.6-14.9,24.8-22.9,36.9c-14.1,1-28.8,1.5-43.7,1.5c-14.9,0-29.3-0.5-43.2-1.3c-8.2-12-16-24.3-23.3-36.9
		C176.2,275.9,169.5,263.1,163.2,250.1L163.2,250.1z M334.2,298.6c4.8-8.3,9.4-16.8,13.8-25.3c6.1,13.7,11.4,27.7,16,41.9
		c-14.7,3.3-29.5,5.9-44.5,7.6C324.6,314.8,329.4,306.7,334.2,298.6L334.2,298.6z M347.8,226.1c-4.5-8.3-9-16.7-13.7-24.8
		c-4.6-8-9.5-16-14.5-23.9c15.2,1.9,29.8,4.5,43.5,7.6C358.7,199,353.6,212.7,347.8,226.1z M250.2,119.6c9.9,10.8,19.3,22.2,28,33.9
		c-18.7-0.9-37.6-0.9-56.3,0C231.2,141.3,240.7,129.9,250.2,119.6z M140.3,61.5c15.9-9.3,51.2,4,88.4,36.9c2.4,2.1,4.7,4.4,7.2,6.6
		c-14.7,15.8-28.2,32.7-40.6,50.3c-21.4,1.9-42.6,5.2-63.6,9.8c-1.2-4.8-2.3-9.8-3.3-14.7C119.5,104.7,125.4,70.2,140.3,61.5
		L140.3,61.5z M117.1,311.1c-4-1.1-7.9-2.4-11.7-3.7c-20.2-6.3-43.1-16.4-59.7-29.5c-9.6-6.6-16-16.9-17.8-28.3
		c0-17.3,29.9-39.5,73.1-54.5c5.4-1.9,10.9-3.6,16.4-5.2c6.4,20.5,14.2,40.7,23.2,60.2C131.5,269.9,123.7,290.3,117.1,311.1z
		 M227.6,404c-15.6,14.3-33.7,25.7-53.4,33.4c-10.5,5-22.6,5.5-33.4,1.2c-15.1-8.7-21.3-42.1-12.8-87.1c1-5.3,2.2-10.6,3.5-15.8
		c21.2,4.5,42.6,7.7,64.3,9.3c12.5,17.7,26.2,34.7,40.9,50.6C233.6,398.5,230.6,401.3,227.6,404L227.6,404z M250.8,380.9
		c-9.7-10.4-19.3-22-28.7-34.4c9.1,0.4,18.5,0.6,27.9,0.6c9.8,0,19.3-0.2,28.8-0.7C270.1,358.5,260.7,370,250.8,380.9z M374.5,409.3
		c-0.9,11.6-6.5,22.3-15.6,29.6c-15.1,8.7-47.2-2.7-81.8-32.4c-4-3.4-8-7.1-12-10.9c14.5-16,27.8-33,40-50.8
		c21.7-1.8,43.3-5.1,64.6-9.9c0.9,3.9,1.8,7.8,2.6,11.6C376.8,367,377.6,388.3,374.5,409.3L374.5,409.3z M391.8,307.6
		c-2.7,0.9-5.3,1.7-8,2.5c-6.6-20.6-14.8-40.8-24.1-60.4c9.1-19.3,16.8-39.2,23.2-59.6c4.9,1.4,9.7,2.9,14.2,4.5
		c44.1,15.2,75.1,37.7,75.1,54.9C472.1,268,439,291.9,391.8,307.6z"/>
</g>
<g id="Layer_2">
	<g id="ZF8dFF.tif_2_">
		<g>
			<path class="st0" d="M244.7,161.2c3.6,0,7.1,0,10.7,0c0.3,0.1,0.7,0.2,1,0.2c9,0,17.6,2.4,25.8,5.6c14.5,5.6,26.7,14.5,36.6,26.6
				c9.4,11.5,15.5,24.5,18.5,39c0.8,4,1.1,8.1,1.5,12.1c0,3.6,0,7.1,0,10.7c-0.2,2.1-0.4,4.1-0.6,6.2c-1.9,14.9-7.3,28.4-16.1,40.6
				c-6.6,9.2-14.7,16.8-24.2,22.9c-10.6,6.8-22.1,11.2-34.6,12.9c-2.6,0.4-5.3,0.6-7.9,0.9c-3.6,0-7.1,0-10.7,0
				c-1.6-0.2-3.3-0.4-4.9-0.5c-8.8-0.6-17.1-3.1-25.1-6.5c-14-6-25.7-15.1-35-27.2c-7.1-9.2-12.2-19.4-15.4-30.5
				c-1.8-6.1-2.8-12.3-3-18.7c0-3.6,0-7.1,0-10.7c0.2-2.2,0.2-4.5,0.5-6.7c1.3-9,3.9-17.6,7.7-25.8c3.3-7.1,7.5-13.7,12.5-19.7
				c5.9-7.1,12.9-12.9,20.7-17.9c8.4-5.3,17.4-8.9,27-11.3C234.6,162,239.6,161.5,244.7,161.2z M257,240.8c0-13.9,0-27.8,0-41.7
				c0-1.3,0-2.4-1.8-2.3c-5,0.1-10.1,0-15.1,0c-1.3,0-1.9,0.5-1.8,1.8c0,0.6,0,1.2,0,1.8c0,7.7,0,15.5,0,23.2c0,2-0.1,2.1-2.1,1.8
				c-4.9-0.8-9.8-0.8-14.6,0.3c-11.1,2.4-19,8.7-22.6,19.8c-2.4,7.5-2.4,15.1-0.1,22.7c1.9,6.4,5.9,11.4,11.7,14.5
				c5.3,2.8,11,4.2,17,4.5c9.1,0.5,18.2-0.3,27.2-2c1.8-0.3,2.3-1,2.3-2.8C257,268.5,257,254.6,257,240.8z M287.2,254.8
				c0,0,0.1,0,0.1,0c0-8.7,0-17.4,0-26.1c0-2.3-0.2-2.5-2.4-2.5c-4.7,0-9.3,0-14,0c-2.2,0-2.3,0.1-2.3,2.3c0,10.1,0,20.1,0,30.2
				c0,7.5,0.2,15-0.7,22.5c-0.7,5.9-2.2,11.5-6.5,16c-2.7,2.9-6,4.9-9.6,6.6c-0.4,0.2-1.1,0.5-1.1,0.8c-0.1,0.6,0.6,0.7,1.1,1
				c4.8,2.3,9.6,4.5,14.4,6.8c0.8,0.4,1.6,0.4,2.4,0c7.3-3.6,12.8-8.7,15.7-16.5c1.9-5.1,2.7-10.4,2.8-15.8
				C287.3,271.6,287.2,263.2,287.2,254.8z M268.6,206.5c0,2.7,0,5.3,0,8c0,1.2,0.5,1.7,1.7,1.7c5.1,0,10.2,0,15.2,0
				c1.3,0,1.8-0.6,1.8-1.8c0-5.2,0-10.4,0-15.6c0-1.4-0.6-1.9-1.9-1.9c-5,0-9.9,0.1-14.9,0c-1.5,0-2,0.6-1.9,2
				C268.6,201.4,268.6,203.9,268.6,206.5z"/>
			<path class="st0" d="M238.3,256.4c0,4.3-0.1,8.6,0,13c0,1.8-0.6,2.6-2.4,2.7c-3.2,0.1-6.5,0.4-9.7-0.5c-4.5-1.2-7.5-4-8.9-8.5
				c-1.2-3.9-1.4-7.9-0.4-11.9c1.7-6.8,5.9-10.5,12.9-11.1c2-0.2,4-0.1,6,0.3c1.7,0.3,2.5,1.1,2.5,3
				C238.2,247.6,238.3,252,238.3,256.4z"/>
		</g>
	</g>
</g>
</svg>
